<?xml version="1.0" encoding="utf-8"?>
<!-- Generator: Adobe Illustrator 28.0.0, SVG Export Plug-In . SVG Version: 6.00 Build 0)  -->
<svg version="1.1" id="Layer_1" xmlns="http://www.w3.org/2000/svg" xmlns:xlink="http://www.w3.org/1999/xlink" x="0px" y="0px"
	 viewBox="0 0 55 55" enable-background="new 0 0 55 55" xml:space="preserve">
<g>
	<path fill="#AFAFAF" d="M47.3,25.4c0,3.2,0,6.4,0,9.6c0,0.4,0.1,0.6,0.5,0.8c0.4,0.1,0.8,0.3,1.1,0.5c0.7,0.3,1,0.8,1.1,1.5
		c0,0.7-0.4,1.2-1,1.5c-2.9,1.3-5.8,2.5-8.6,3.8c-3,1.3-5.9,2.6-8.8,3.9c-2.5,1.1-5,1-7.5-0.4c-5.1-2.8-10.2-5.7-15.2-8.5
		c-1.6-0.9-3.1-1.7-4.7-2.6c-0.8-0.4-1.3-1-1.2-1.9c0.1-0.9,0.7-1.4,1.6-1.6c0.7-0.2,1.4-0.5,2.2-0.7c0.4-0.1,0.6-0.3,0.6-0.8
		c0-5.4,0-10.7,0-16.1c0-0.8,0-0.8,0.8-1c5.3-1.3,10.7-2.5,16-3.8c0.4-0.1,0.8-0.1,1.2,0c7.2,1.8,14.3,3.6,21.5,5.4
		c0.5,0.1,0.7,0.4,0.7,0.9C47.3,19,47.3,22.2,47.3,25.4z M7.1,31.9c-0.9,0.3-1.7,0.6-2.5,0.8c-0.5,0.1-0.8,0.4-0.9,0.9
		c-0.1,0.5,0.3,0.8,0.7,1.1c1.7,0.9,3.4,1.8,5,2.8c5,2.8,10,5.5,15,8.3c2.2,1.2,4.4,1.3,6.6,0.3c1.5-0.7,3-1.3,4.5-2
		c4.3-1.9,8.6-3.8,12.8-5.7c0.3-0.1,0.6-0.5,0.6-0.7s-0.3-0.6-0.6-0.7c-0.5-0.3-1-0.5-1.5-0.6c-0.2-0.1-0.5,0-0.7,0.1
		c-0.7,0.4-1.5,0.8-2.2,1.3c-0.3,0.2-0.6,0.2-0.9,0.1c-1.2-0.5-2.4-1.1-3.6-1.6c-0.8-0.3-1.6-0.7-2.5-1.1c0,0.3,0,0.6,0,0.8
		c0,1.8,0,3.6,0,5.4c0,0.6-0.2,1-0.8,1.3c-0.4,0.2-0.8,0.4-1.3,0.5c-1.6,0.4-3.3,0.5-5,0.3c-1.1-0.1-2.2-0.3-3.2-0.6
		c-1-0.3-1.3-0.7-1.3-1.8c0-2.5,0-4.9,0-7.4c0-0.6,0.2-1,0.8-1.3c0.5-0.2,0.9-0.4,1.4-0.5c0.3-0.1,0.7-0.2,1.1-0.2
		c-0.1-0.1-0.1-0.1-0.2-0.1c-2.3-1-4.6-2-6.9-3c-0.2-0.1-0.4-0.1-0.6,0c-1.1,0.3-2.2,0.7-3.3,1c-0.2,0.1-0.4,0.3-0.4,0.5
		c0,0.8,0,1.6,0,2.4c0,0.3-0.1,0.5-0.4,0.7c-1.9,0.7-3.7,1.4-5.6,2.1c-0.2,0.1-0.5,0.1-0.7,0c-0.8-0.3-1.6-0.8-2.4-1
		c-0.9-0.3-1.2-0.8-1.1-1.7C7.1,32.3,7.1,32.2,7.1,31.9z M25.1,12.7c0,0.3,0,0.5,0,0.7c0,1.9,0,3.7,0,5.6c0,0.5-0.1,0.8-0.7,0.9
		c-0.7,0.2-1.5,0.4-2.2,0.6c-0.4,0.1-0.5,0.3-0.5,0.7c0,2,0,3.9,0,5.9c0,0.5,0.2,0.6,0.5,0.8c2.2,0.9,4.4,1.9,6.6,2.9
		c1.1,0.5,2.3,0.8,3.5,0.9c1.2,0,2.4,0.4,3.5,0.7c0.7,0.2,1.1,0.7,1,1.5c0,0.3,0.1,0.5,0.4,0.7c1.7,0.8,3.4,1.5,5.1,2.3
		c0.2,0.1,0.3,0.1,0.5,0.1c0-0.2,0-0.2,0-0.3c0-6.1,0-12.1,0-18.2c0-0.5-0.2-0.8-0.7-0.9c-4.6-1.2-9.3-2.5-13.9-3.7
		C27.4,13.3,26.3,13,25.1,12.7z M24.1,12.7c-0.1,0-0.2,0-0.4,0.1c-4,0.9-7.9,1.9-11.9,2.8c-0.5,0.1-0.5,0.4-0.5,0.7
		c0,5.8,0,11.5,0,17.2c0,0.2,0,0.4,0,0.6c1.5-0.6,2.9-1.1,4.4-1.7c0.5-0.2,0.6-0.4,0.6-0.9c0-3.3,0-6.6,0-9.8c0-0.5,0.2-0.7,0.6-0.8
		c2.2-0.6,4.5-1.3,6.7-1.9c0.3-0.1,0.5-0.2,0.5-0.6c0-1.8,0-3.6,0-5.4C24.2,13,24.2,12.8,24.1,12.7z M36.1,34.5
		c-3.3,1.1-6.5,0.9-9.8,0c0,0.2,0,0.4,0,0.6c0,2,0,3.9,0,5.9c0,0.5,0.2,0.8,0.7,1c0.2,0.1,0.4,0.2,0.6,0.2c2,0.5,3.9,0.5,5.9,0.2
		c0.7-0.1,1.4-0.3,2.1-0.5c0.4-0.1,0.5-0.4,0.5-0.8c0-1.3,0-2.6,0-3.9C36.1,36.3,36.1,35.4,36.1,34.5z M9.1,13.9c0,0,0,0.1,0,0.1
		c0.4,0.2,0.8,0.3,1.2,0.6c0.5,0.3,0.9,0.3,1.4,0.1c4.1-1,8.2-2,12.4-3c0.4-0.1,0.8-0.1,1.2,0c6,1.6,11.9,3.2,17.9,4.8
		c0.2,0,0.3,0.1,0.5,0c0.6-0.3,1.2-0.6,2-1c-0.3-0.1-0.4-0.1-0.6-0.2c-6.7-1.7-13.3-3.4-20-5c-0.3-0.1-0.7-0.1-1,0
		c-2.8,0.6-5.6,1.3-8.3,1.9C13.5,12.9,11.3,13.4,9.1,13.9z M44,36.7c0.7-0.4,1.3-0.8,1.9-1.1c0.4-0.2,0.5-0.5,0.5-1
		c0-5.9,0-11.8,0-17.7c0-0.2,0-0.4,0-0.7c-0.7,0.4-1.3,0.7-1.9,1C44.1,17.3,44,17.6,44,18c0,6,0,12,0,18.1C44,36.2,44,36.4,44,36.7z
		 M10.5,34.2c0-0.3,0-0.6,0-0.8c0-3.8,0-7.5,0-11.3c0-2,0-3.9,0-5.9c0-0.2-0.1-0.5-0.2-0.6c-0.7-0.4-1.5-0.7-2.3-1.1
		c0,0.3,0,0.5,0,0.7c0,3.3,0,6.7,0,10c0,2.4,0,4.9,0,7.3c0,0.2,0.1,0.5,0.2,0.6C8.9,33.5,9.7,33.8,10.5,34.2z M20.9,20.8
		c-1.1,0.3-2.1,0.6-3.1,0.9c-0.4,0.1-0.5,0.2-0.5,0.6c0,2,0,3.9,0,5.9c0,0.1,0,0.3,0,0.5c1.1-0.4,2.2-0.7,3.2-1
		c0.1,0,0.3-0.3,0.3-0.5c0-1.1,0-2.3,0-3.4C20.9,22.8,20.9,21.8,20.9,20.8z M26.3,33.4c0.4,0.2,0.8,0.4,1.2,0.5
		c2,0.6,4.1,0.5,6.2,0.4c0.7,0,1.4-0.5,2.1-0.8c0.1,0,0.1-0.2,0.2-0.2C34.4,32,27.7,32,26.3,33.4z"/>
	<path fill="#AFAFAF" d="M39.2,26.3c0,1.8,0,3.7,0,5.5c0,0.7-0.2,0.9-0.9,0.6c-3.6-1.5-7.2-2.9-10.9-4.3c-0.5-0.2-0.7-0.5-0.7-1
		c0-3.3,0-6.6,0-9.8c0-0.9,0.1-1,1-0.7c3.6,1.1,7.2,2.3,10.8,3.4c0.5,0.1,0.7,0.4,0.7,0.9C39.2,22.6,39.2,24.5,39.2,26.3z
		 M27.8,17.5c0,0.1,0,0.2,0,0.2c0,3.1,0,6.1,0,9.2c0,0.4,0.2,0.5,0.5,0.6c2.9,1.1,5.7,2.3,8.6,3.5c0.5,0.2,1,0.4,1.5,0.6
		c0-0.1,0-0.2,0-0.3c0-3.4,0-6.7,0-10c0-0.4-0.2-0.5-0.5-0.5c-2.6-0.8-5.2-1.6-7.9-2.5C29.3,17.9,28.6,17.7,27.8,17.5z"/>
	<path fill="#AFAFAF" d="M31,15.5c0,0.5-0.4,0.8-0.8,0.8c-0.4,0-0.8-0.4-0.8-0.8c0-0.5,0.4-0.9,0.8-0.9C30.6,14.7,30.9,15,31,15.5z"
		/>
	<path fill="#AFAFAF" d="M33.9,16.3c0,0.5-0.4,0.8-0.9,0.8c-0.4,0-0.8-0.4-0.8-0.8c0-0.5,0.4-0.8,0.8-0.8
		C33.5,15.4,33.9,15.8,33.9,16.3z"/>
	<path fill="#AFAFAF" d="M36,17.9c-0.5,0-0.8-0.4-0.8-0.9c0-0.4,0.4-0.8,0.8-0.8c0.5,0,0.8,0.4,0.8,0.8C36.9,17.5,36.5,17.9,36,17.9
		z"/>
	<path fill="#AFAFAF" d="M40,18c0,0.5-0.4,0.9-0.8,0.8c-0.5,0-0.8-0.4-0.8-0.8c0-0.5,0.4-0.9,0.8-0.8C39.7,17.2,40,17.6,40,18z"/>
	<path fill="#AFAFAF" d="M27.3,15.5c-0.5,0-0.8-0.4-0.8-0.8c0-0.4,0.3-0.8,0.8-0.8c0.5,0,0.9,0.3,0.9,0.8
		C28.1,15.1,27.8,15.5,27.3,15.5z"/>
</g>
</svg>
