<?xml version="1.0" encoding="utf-8"?>
<!-- Generator: Adobe Illustrator 28.0.0, SVG Export Plug-In . SVG Version: 6.00 Build 0)  -->
<svg version="1.1" id="Layer_1" xmlns="http://www.w3.org/2000/svg" xmlns:xlink="http://www.w3.org/1999/xlink" x="0px" y="0px"
	 viewBox="0 0 55 55" enable-background="new 0 0 55 55" xml:space="preserve">
<path fill="#AFAFAF" d="M8.2,10.3C8.1,9,8.6,7.9,9.6,7.1C11.8,5.3,14.2,4,17,3.2c2-0.6,3.7,0.2,4.5,2.1c1.2,3,2.3,6.1,3.4,9.1
	c0.5,1.3,0.2,2.4-0.6,3.5c-0.5,0.6-0.9,1.3-1.4,1.8c-1,0.9-1,1.8-0.4,3c2,4.1,4.5,7.8,7.6,11.1c0.6,0.7,1.2,0.8,2,0.5
	c0.9-0.3,1.8-0.5,2.7-0.8c1.5-0.5,2.7-0.1,3.8,0.9c2.3,2.1,4.6,4.2,6.8,6.2c1.5,1.4,1.7,3.4,0.4,5.1c-1.8,2.2-3.8,4-6.3,5.4
	c-1.2,0.7-2.4,0.7-3.7,0.1c-7.6-4-13.9-9.5-18.8-16.6C12,27.3,9.1,19.2,8.2,10.3z M18.3,5.3c-0.5,0.1-0.7,0.2-0.9,0.2
	c-2.1,1.1-4.2,2.2-6.3,3.4c-0.4,0.2-0.6,1.1-0.5,1.6c1,9,4.2,17.2,9.7,24.5c4.3,5.7,9.7,10.2,16,13.7c0.9,0.5,1.7,0.6,2.5-0.1
	c1.6-1.4,3.3-2.7,4.8-4.2c0.8-0.7,0.7-1.5-0.1-2.2c-2.2-2-4.4-4.1-6.7-6c-0.4-0.3-1.2-0.5-1.7-0.4c-1.3,0.2-2.5,0.8-3.8,1
	c-0.6,0.1-1.4,0-1.8-0.4c-4.5-4.2-7.8-9.2-10.1-14.9c-0.3-0.8-0.2-1.4,0.3-2c0.9-1,1.8-2.1,2.5-3.2c0.3-0.4,0.4-1.1,0.2-1.5
	c-1-2.9-2.1-5.8-3.2-8.7C19.1,6,18.6,5.7,18.3,5.3z"/>
</svg>
