<?xml version="1.0" encoding="utf-8"?>
<!-- Generator: Adobe Illustrator 28.0.0, SVG Export Plug-In . SVG Version: 6.00 Build 0)  -->
<svg version="1.1" id="Layer_1" xmlns="http://www.w3.org/2000/svg" xmlns:xlink="http://www.w3.org/1999/xlink" x="0px" y="0px"
	 viewBox="0 0 55 55" enable-background="new 0 0 55 55" xml:space="preserve">
<g>
	<path fill="#AFAFAF" d="M26.3,42.6c-9.5,0-17.1-7.7-17.1-17.3c0-9.4,7.7-17,17.2-17c9.8,0,17.1,8,17.1,17.1
		C43.5,34.9,35.8,42.6,26.3,42.6z M40.4,18.1c-0.7-1-1.3-1.9-2-2.8c-0.1-0.1-0.3-0.2-0.4-0.2c-1.2-0.1-2.4-0.3-3.5-0.2
		c-0.5,0-1.1,0.4-1.6,0.7c-0.7,0.4-1.2,1-1.9,1.5c-0.9,0.6-1.8,0.9-2.8,0.3c-1-0.7-1.5-1.6-1.3-2.9c0.2-1.4,0.9-2.5,1.7-3.6
		c0.2-0.3,0.4-0.6,0.7-0.9c-2.3-0.4-4.4-0.4-6.6,0.1c0.2,0.3,0.3,0.5,0.4,0.7c0.5,1.2,1.2,2.4,1.6,3.7c0.8,2.9-0.3,4.9-3.1,6
		c-0.4,0.2-0.9,0.4-1.2,0.6c-0.2,0.2-0.4,0.6-0.3,0.8c0.1,0.9,1,1.3,1.8,0.9c0.6-0.3,1.1-0.6,1.7-0.9c1.3-0.5,2.6-0.2,3.6,1
		c0.9,0.9,1,2,0.3,3.3c-0.3,0.6-0.7,1.3-1,1.9c-0.4,0.7-0.4,1.5-0.1,2.3c0.2,0.6,0.3,1.3,0.3,2c-0.1,2.4-1.1,4.4-2.8,6
		c-0.5,0.5-1.3,0.9-2,1.1c-1.3,0.4-2.4-0.5-2.5-1.8c0-0.5,0-1.1,0-1.7c0-0.7,0.1-1.3,0.2-2c0-0.8-0.3-1.5-1-2
		c-0.5-0.4-1-0.7-1.5-1.1c-0.9-0.7-1.3-1.6-1.1-2.7c0-0.2,0.1-0.5,0.1-0.7c0.1-1.9-0.4-2.5-2.2-3c-1-0.3-1.9-0.8-2.6-1.6
		c-0.1-0.1-0.2-0.2-0.3-0.3C9.6,28,12,35.4,18.5,39.1c5.8,3.3,13.4,2.5,18.1-1.8c-1.2-1.3-1.6-2.8-1.2-4.4c0.2-1,0.7-2,1.2-2.9
		c0.8-1.4,0.5-3.8-1.6-3.9c-1.2-0.1-2.1-0.8-2.7-1.8c-1-1.7-0.2-4.1,1.7-5.2c1-0.5,2.2-0.8,3.3-1C38.3,18,39.3,18.1,40.4,18.1z
		 M23.6,16.2c0-1.5-0.8-3.3-1.9-5.1c-0.3-0.5-0.6-0.5-1.1-0.3c-4,1.6-6.9,4.4-8.7,8.3c-0.5,1-0.3,1.8,0.2,2.7
		c0.5,0.8,1.2,1.2,2.2,1.4c2.1,0.5,3.2,1.8,3,4c-0.2,1.7,0.4,2.6,1.8,3.5c1.4,0.8,2,2.2,1.9,3.8c-0.1,0.8-0.2,1.5-0.2,2.3
		c0,0.5-0.2,1.2,0.4,1.3c0.4,0.1,1-0.2,1.5-0.3c0.2-0.1,0.4-0.3,0.6-0.5c1.1-1.2,1.9-2.7,2.1-4.4c0.1-0.6,0.1-1.2-0.1-1.8
		c-0.5-1.4-0.3-2.7,0.4-3.9c0.4-0.6,0.7-1.2,1-1.8c0.1-0.3,0.1-0.9-0.1-1.1c-0.6-1-1.6-1.2-2.6-0.6c-0.6,0.3-1.1,0.6-1.7,0.8
		c-1.2,0.5-2.6-0.2-3.2-1.5c-0.5-1.1-0.2-2.2,1-3c0.6-0.3,1.2-0.5,1.8-0.8C23,18.4,23.7,17.4,23.6,16.2z M37.7,36.3
		c0.1-0.1,0.2-0.1,0.2-0.1c3.9-3.9,5.4-11,3.3-16.1c-0.1-0.2-0.4-0.5-0.6-0.5c-1.5,0-3,0.1-4.6,0.2c-0.5,0.1-1.1,0.4-1.5,0.7
		c-0.8,0.6-1.3,1.5-1,2.6c0.3,1,1.1,1.5,2.1,1.6c1.8,0.3,2.8,1.4,2.9,3.2c0.1,1-0.2,2-0.8,2.9c-0.4,0.7-0.7,1.4-0.9,2.1
		C36.5,34.3,36.7,35.4,37.7,36.3z M36.4,13.5c-1.5-1.5-3.3-2.4-5.2-3.1c-0.2-0.1-0.5,0-0.6,0.2c-0.7,1.1-1.4,2.2-2.1,3.3
		c-0.2,0.3-0.2,0.8-0.2,1.2c0,1,1,1.5,1.8,0.9c0.7-0.5,1.3-1,1.9-1.5c0.7-0.6,1.5-1,2.5-1C35.1,13.5,35.8,13.5,36.4,13.5z"/>
	<path fill="#AFAFAF" d="M27,47.2c0,1.1,0,2.2,0,3.3c0,0.5,0.4,0.4,0.6,0.4c2.1,0,4.2,0,6.3,0c0.2,0,0.4-0.1,0.5,0
		c0.2,0.2,0.6,0.4,0.6,0.6c0,0.2-0.3,0.5-0.5,0.7c-0.1,0.1-0.3,0-0.5,0c-5.3,0-10.6,0-16,0c-0.1,0-0.3,0-0.4,0
		c-0.2-0.2-0.6-0.5-0.6-0.7c0-0.2,0.4-0.5,0.6-0.7c0.1-0.1,0.4,0,0.5,0c2.2,0,4.3,0,6.5,0c0.2,0,0.5,0,0.8,0c0-1.4,0-2.7,0-4
		c0-1,0.1-1.1,1.1-1.1c6.2-0.3,11.4-2.6,15.2-7.4c5.1-6.4,6.2-13.6,2.8-21.1c-3.2-7.1-8.9-11-16.6-11.9c-0.5-0.1-1.1-0.1-1.6-0.1
		c-0.5,0-0.9-0.1-0.9-0.7c0-0.6,0.5-0.7,0.9-0.7c2.8,0,5.5,0.6,8.1,1.7c12.2,5.1,17.1,19.9,10.1,31.2c-3.9,6.3-9.6,9.8-17,10.4
		c-0.2,0-0.3,0-0.5,0C27.2,47.1,27.2,47.1,27,47.2z"/>
</g>
</svg>
