<?xml version="1.0" encoding="utf-8"?>
<!-- Generator: Adobe Illustrator 28.0.0, SVG Export Plug-In . SVG Version: 6.00 Build 0)  -->
<svg version="1.1" id="Layer_1" xmlns="http://www.w3.org/2000/svg" xmlns:xlink="http://www.w3.org/1999/xlink" x="0px" y="0px"
	 viewBox="0 0 55 55" enable-background="new 0 0 55 55" xml:space="preserve">
<path fill="#AFAFAF" d="M53,14.9c-2.1,2-4,3.8-6,5.6c1.8,2.3,3.5,4.6,5.4,7c-1.4,0.4-2.7,0.8-3.9,1.1c-1.3,0.3-1.8,0.9-1.8,2.3
	c0.1,4.1,0,8.2,0.1,12.2c0,0.9-0.2,1.4-1.2,1.6c-5.9,1.6-11.8,3.3-17.7,4.9c-0.5,0.1-1,0.2-1.5,0c-5.9-1.6-11.9-3.3-17.8-4.9
	c-1-0.3-1.2-0.7-1.2-1.7c0-4.2,0-8.5,0-12.7c0-0.9-0.2-1.4-1.2-1.6c-1.5-0.3-2.9-0.8-4.5-1.3c1.8-2.3,3.5-4.6,5.4-6.9
	c-1.9-1.8-3.8-3.6-6-5.6c2-0.6,3.8-1.1,5.6-1.6c4.6-1.3,9.3-2.6,13.9-3.9c0.9-0.3,1.5-0.1,2.2,0.6c1.3,1.3,2.7,2.6,4.3,4
	c1.5-1.4,2.9-2.8,4.5-4.1c0.4-0.3,1-0.6,1.4-0.5C39.6,11.1,46.1,12.9,53,14.9z M45,29.6c-0.6,0.1-1.1,0.2-1.5,0.4
	c-3.5,1-6.9,1.9-10.4,2.9c-0.9,0.3-1.4,0.1-2-0.6c-0.9-1.3-1.9-2.5-3.1-4c0,6.7,0,13,0,19.5c5.5-1.5,10.9-3,16.2-4.5
	c0.3-0.1,0.7-0.5,0.7-0.8C45,38.2,45,33.9,45,29.6z M26.1,47.8c0-6.5,0-12.8,0-19.5c-1.1,1.5-2.1,2.6-3,3.8
	c-0.6,0.9-1.2,1.1-2.2,0.8c-3.1-1-6.3-1.8-9.5-2.7c-0.7-0.2-1.5-0.3-2.3-0.5c0,3.7,0,7.2,0,10.7c0,2.7,0,2.7,2.6,3.5
	C16.5,45.1,21.2,46.4,26.1,47.8z M11.9,20.3c0.4,0.2,0.5,0.4,0.6,0.4c4.6,1.3,9.2,2.6,13.9,3.8c0.6,0.1,1.2,0.1,1.8-0.1
	c4.2-1.1,8.4-2.3,12.5-3.5c0.5-0.1,0.9-0.3,1.8-0.6c-5.3-1.5-10.2-2.9-15.1-4.2c-0.5-0.1-1,0.1-1.5,0.2c-3.8,1-7.6,2.1-11.5,3.2
	C13.6,19.8,12.9,20,11.9,20.3z M4.6,26.5c5.6,1.6,10.9,3.1,16.3,4.5c0.3,0.1,0.8,0,1-0.2c1.2-1.5,2.4-3,3.7-4.7
	c-5.6-1.5-10.8-3-16.1-4.5c-0.4-0.1-1,0-1.2,0.2C7.1,23.3,5.9,24.8,4.6,26.5z M28.5,26.1c1.1,1.5,2.2,2.8,3.2,4.1
	c0.6,0.8,1.2,1,2.1,0.7c4.2-1.2,8.4-2.4,12.6-3.6c1-0.3,1.9-0.6,3.1-0.9c-1.5-1.8-2.4-4-4.1-4.7c-1.2-0.6-3.3,0.6-5,1.1
	c-0.5,0.1-1,0.3-1.5,0.4C35.5,24.1,32.1,25.1,28.5,26.1z M28.8,14.7c5.6,1.6,10.9,3.1,16.3,4.5c0.3,0.1,0.8,0,1-0.2
	c1.2-1,2.3-2.1,3.4-3.2c-0.2-0.2-0.2-0.3-0.3-0.3c-5.2-1.5-10.4-2.9-15.7-4.3c-0.4-0.1-0.9,0.1-1.2,0.3
	C31.1,12.5,30.1,13.5,28.8,14.7z M4.5,15.7c1.3,1.2,2.2,2.2,3.3,3.1c0.4,0.3,1.1,0.5,1.6,0.4c2.7-0.7,5.3-1.4,8-2.2
	c2.5-0.7,5.1-1.4,7.9-2.2c-1.4-1.3-2.5-2.4-3.7-3.4c-0.2-0.2-0.7-0.2-1-0.1C15.4,12.6,10.1,14.1,4.5,15.7z"/>
</svg>
