<?xml version="1.0" encoding="utf-8"?>
<!-- Generator: Adobe Illustrator 28.0.0, SVG Export Plug-In . SVG Version: 6.00 Build 0)  -->
<svg version="1.1" id="Layer_1" xmlns="http://www.w3.org/2000/svg" xmlns:xlink="http://www.w3.org/1999/xlink" x="0px" y="0px"
	 viewBox="0 0 55 55" enable-background="new 0 0 55 55" xml:space="preserve">
<path fill="#AFAFAF" d="M26.7,45.3c-2-2.5-4-4.8-5.9-7.2c-2.4-2.9-4.9-5.8-7.2-8.8c-3.9-5.2-4.8-10.9-2.1-16.9
	c2.7-6,7.6-9.4,14.2-9.7C35.2,2.4,42.8,9.6,43,19.1c0.1,3.7-1,7.1-3.3,10c-4.2,5.3-8.5,10.5-12.7,15.8C26.9,45,26.8,45.1,26.7,45.3z
	 M26.7,43.1c0.1-0.3,0.2-0.4,0.3-0.6c3.8-4.7,7.6-9.4,11.4-14.1c3.9-4.9,4.2-11.9,0.8-17.4c-3.4-5.3-10-8-16.2-6.5
	c-10.7,2.7-15.1,15.3-8.3,24c3.4,4.3,6.9,8.5,10.4,12.7C25.6,41.8,26.1,42.4,26.7,43.1z"/>
<path fill="#AFAFAF" d="M21.3,42.3c-2.6,0.7-5.2,1.3-7.8,2c-0.8,0.2-1.9,0.6-1.9,1.7c0,1.1,1.1,1.3,1.9,1.7c2.7,1.2,5.6,1.6,8.6,1.8
	c5.5,0.4,11,0.3,16.4-1.4c0.8-0.2,1.5-0.6,2.2-1c1.2-0.7,1.3-1.6,0-2.2c-1.7-0.8-3.6-1.3-5.4-1.8c-1.1-0.3-2.2-0.4-3.4-0.5
	c0.3-0.8,0.7-1.3,1.7-1.2c2.5,0.4,5,0.8,7.2,2c1.1,0.6,2.2,1.3,2.2,2.7c0,1.4-1.1,2.1-2.2,2.6c-2.5,1.3-5.3,1.8-8.1,2.1
	c-5.9,0.6-11.7,0.6-17.4-0.9c-1.3-0.3-2.6-0.9-3.8-1.6c-2-1.2-2-3.1,0-4.4c1.9-1.3,4.1-1.7,6.3-2.2c0.5-0.1,1-0.1,1.5-0.2
	C20.4,41.2,21,41.6,21.3,42.3z"/>
<path fill="#AFAFAF" d="M32.8,18.3c0,3.5-2.8,6.3-6.3,6.3c-3.5,0-6.3-2.9-6.3-6.4c0-3.4,2.8-6.2,6.3-6.2C30,12,32.8,14.8,32.8,18.3z
	 M26.5,23.2c2.7,0,5-2.2,5-4.9c0-2.7-2.2-4.9-4.8-4.9c-2.7-0.1-5,2.1-5,4.8C21.6,20.9,23.7,23.1,26.5,23.2z"/>
</svg>
