<?xml version="1.0" encoding="utf-8"?>
<!-- Generator: Adobe Illustrator 28.0.0, SVG Export Plug-In . SVG Version: 6.00 Build 0)  -->
<svg version="1.1" id="Layer_1" xmlns="http://www.w3.org/2000/svg" xmlns:xlink="http://www.w3.org/1999/xlink" x="0px" y="0px"
	 viewBox="0 0 55 55" enable-background="new 0 0 55 55" xml:space="preserve">
<g>
	<path fill="#FFFFFF" d="M28.1,54C17.1,54.2,7,47.3,3.3,37C-0.6,26.2,3,14.3,12.2,7.5C14,6.2,16.1,6.6,17,8.5c0.7,1.3,0.3,2.9-1,3.8
		c-1.8,1.3-3.3,2.8-4.5,4.6c-6.4,8.8-4.1,21.5,5,27.6c9.6,6.4,22.1,3.5,28-6.4c5-8.5,2.7-19.5-5.4-25.6c-1.9-1.4-1.8-4,0.1-5.2
		c1.1-0.7,2.4-0.6,3.5,0.2c5,3.7,8.3,8.6,9.8,14.7c3.5,14.1-5.6,28.4-19.9,31.2C31.1,53.7,29.6,53.8,28.1,54z"/>
	<path fill="#FFFFFF" d="M24.4,13.7c0-3.3,0-6.7,0-10c0-1.2,0.5-2.1,1.6-2.7c1-0.6,2.1-0.5,3.1,0.1c1,0.6,1.4,1.6,1.4,2.7
		c0,2.6,0,5.1,0,7.7c0,4.1,0,8.2,0,12.2c0,1.4-0.9,2.6-2.2,3c-1.3,0.4-2.7-0.1-3.4-1.3c-0.3-0.5-0.5-1.2-0.5-1.8
		C24.4,20.4,24.4,17.1,24.4,13.7L24.4,13.7z"/>
</g>
</svg>
