<?xml version="1.0" encoding="utf-8"?>
<!-- Generator: Adobe Illustrator 28.0.0, SVG Export Plug-In . SVG Version: 6.00 Build 0)  -->
<svg version="1.1" id="Layer_1" xmlns="http://www.w3.org/2000/svg" xmlns:xlink="http://www.w3.org/1999/xlink" x="0px" y="0px"
	 viewBox="0 0 518 146" enable-background="new 0 0 518 146" xml:space="preserve">
<g>
	<g>
		<rect x="3.6" y="5.5" fill="#F9E700" width="37" height="37"/>
		<rect x="105.7" y="104.5" fill="#07572D" width="37" height="37"/>
		<rect x="56.7" y="19.7" fill="#F8B716" width="37" height="37"/>
		<rect x="19.7" y="56.7" fill="#76B743" width="37" height="37"/>
		<rect x="93.7" y="56.7" fill="#E65E24" width="37" height="37"/>
		<rect x="56.7" y="93.7" fill="#06703A" width="37" height="37"/>
		<path fill="#048C45" d="M56.7,130.6H45.3c-14.1,0-25.5-11.4-25.5-25.5V93.7h37V130.6z"/>
		<path fill="#EA8B23" d="M93.7,19.7h11.4c14.1,0,25.5,11.4,25.5,25.5v11.4h-37V19.7z"/>
	</g>
	<g>
		<path fill="#007032" d="M395,49.2c15.4,0,30.7,0,46,0c0,5.6,0,11.2,0,16.9c-4.9,0-9.7,0-14.8,0c0-1.6,0-3.2,0-4.9
			c-5.3,0-10.5,0-15.7,0c0,1.7,0,3.3,0,5.1c4,0,7.9,0,12,0c0,3.6,0,7.1,0,10.8c-4,0-7.9,0-12,0c0,1.6,0,3,0,4.5c5.2,0,10.4,0,15.6,0
			c0-1.7,0-3.3,0-5c5,0,9.9,0,14.8,0c0,5.7,0,11.3,0,16.9c-15.3,0-30.7,0-46,0C395,78.8,395,64.1,395,49.2z"/>
		<path fill="#007032" d="M220.4,47.2c7.7,0.1,15,2.8,20.8,9.1c8.3,9,8.4,21,0.2,30.1c-11.1,12.3-32.2,12.3-43.3,0
			c-9-10-7.9-23.8,2.8-32.5C206.3,49.4,212.7,47.3,220.4,47.2z M219.7,59.9c-6.4,0-11.5,5.2-11.5,11.6c0,6.4,5.2,11.6,11.6,11.5
			c6.4,0,11.5-5.2,11.5-11.6C231.3,65,226.1,59.8,219.7,59.9z"/>
		<path fill="#007032" d="M156.9,82.2c0,3.8,0,7.6,0,11.4c-5.2,0-10.3,0-15.5,0c0-14.8,0-29.5,0-44.4c0.4,0,0.8-0.1,1.2-0.1
			c9.2,0,18.5,0,27.8,0c5.2,0,9.9,1.5,13.7,5.1c8.4,7.9,5.9,21.2-4.9,26.1c-2.8,1.3-5.8,1.8-8.9,1.9c-4,0-8,0-12,0
			C157.8,82.2,157.4,82.2,156.9,82.2z M156.9,70c0.1,0.1,0.2,0.1,0.3,0.1c3.9,0,7.8,0.1,11.8,0c1.8-0.1,3-1.1,3.7-2.8
			c1.1-3-0.8-6-4-6.1c-2.8-0.1-5.5,0-8.3,0c-1.1,0-2.2,0-3.4,0C156.9,64.2,156.9,67.1,156.9,70z"/>
		<path fill="#007032" d="M295.6,75.4c0,6.1,0,12.2,0,18.2c-14.6,0-29.2,0-43.8,0c0-14.8,0-29.5,0-44.3c5.1,0,10.2,0,15.4,0
			c0,10.5,0,21.1,0,31.7c0.5,0,0.9,0.1,1.3,0.1c3.7,0,7.4,0,11.1,0c0.9,0,1.3-0.2,1.3-1.2c-0.1-1.5,0-2.9,0-4.5
			C285.8,75.4,290.7,75.4,295.6,75.4z"/>
		<path fill="#007032" d="M321.5,93.6c-5.2,0-10.3,0-15.4,0c0-0.5-0.1-1-0.1-1.4c0-3.3,0-6.7,0-10c0-0.7-0.2-1.6-0.6-2.2
			c-5.8-9.8-11.7-19.6-17.6-29.4c-0.2-0.4-0.5-0.9-0.8-1.4c0.5,0,0.8-0.1,1.1-0.1c5,0,10,0,15,0c0.9,0,1.3,0.3,1.7,1
			c2.7,5.3,5.4,10.5,8.1,15.7c0.2,0.4,0.4,0.7,0.7,1.3c0.3-0.5,0.6-0.9,0.7-1.2c2.7-5.3,5.5-10.5,8.2-15.8c0.4-0.8,0.8-1,1.7-1
			c5.3,0,10.6,0,16.2,0c-0.3,0.5-0.4,0.8-0.6,1.2c-5.9,9.8-11.8,19.6-17.6,29.4c-0.5,0.8-0.7,1.8-0.8,2.7c-0.1,3.3,0,6.5,0,9.8
			C321.5,92.7,321.5,93.1,321.5,93.6z"/>
		<path fill="#007032" d="M390.1,49.2c0,4.2,0,8.2,0,12.5c-0.5,0-0.9,0.1-1.3,0.1c-4.4,0-8.9,0-13.3,0c-1.1,0-1.4,0.4-1.4,1.4
			c0,9.6,0,19.3,0,28.9c0,0.5,0,1,0,1.6c-5.2,0-10.2,0-15.5,0c0-0.4-0.1-0.9-0.1-1.3c0-9.7,0-19.4,0-29.1c0-1.1-0.3-1.4-1.4-1.4
			c-4.3,0.1-8.6,0-12.9,0c-0.5,0-0.9,0-1.5,0c0-4.2,0-8.3,0-12.5C358.5,49.2,374.2,49.2,390.1,49.2z"/>
		<path fill="#007032" d="M496.2,49.3c-0.7,1.1-1.3,2-1.9,2.9c-4.1,6.1-8.2,12.2-12.3,18.3c-0.5,0.7-0.5,1.2,0,1.9
			c4.7,6.7,9.4,13.4,14.1,20.1c0.2,0.3,0.4,0.6,0.7,1.1c-0.5,0-0.9,0.1-1.2,0.1c-5,0-10,0-15,0c-0.8,0-1.2-0.2-1.7-0.9
			c-4.5-6.8-9.1-13.6-13.7-20.4c-0.5-0.7-0.5-1.2,0-1.9c4.4-6.8,8.8-13.6,13.1-20.4c0.3-0.4,0.8-0.9,1.3-0.9c5.4-0.1,10.7,0,16.1,0
			C495.7,49.2,495.8,49.2,496.2,49.3z"/>
		<path fill="#007032" d="M446.3,93.6c0-14.8,0-29.5,0-44.4c5.1,0,10.2,0,15.4,0c0,14.7,0,29.5,0,44.4
			C456.6,93.6,451.5,93.6,446.3,93.6z"/>
		<path fill="#1A1A18" d="M300.2,105.2c0.2-0.1,0.3-0.1,0.4-0.1c3.2-0.2,3.2-0.2,4,2.8c1.9,6.9,3.8,13.8,5.7,20.7
			c0.1,0.4,0.2,0.8,0.4,1.3c-0.9,0-1.8,0-2.8,0c-0.5-2.1-1.1-4.2-1.6-6.3c-0.2-0.7-0.5-0.9-1.2-0.9c-2,0.1-4,0.1-5.9,0
			c-0.8,0-1.2,0.2-1.4,1.1c-0.4,2.1-1,4.1-1.5,6.1c-0.9,0-1.8,0-2.8,0C295.7,121.7,298,113.5,300.2,105.2z M305.4,120.3
			c-1.1-4.3-2.2-8.5-3.2-12.7c-0.1,0-0.2,0-0.3,0.1c-1.1,4.2-2.1,8.4-3.2,12.7C301,120.3,303.1,120.3,305.4,120.3z"/>
		<path fill="#1A1A18" d="M458,128c-1.7,2.3-3.6,3.1-5.8,2.4c-0.5-0.2-1.1-0.5-1.5-0.9c-2.4-2.3-1.7-7.3,1.2-8.9
			c1.2-0.6,2.5-1.1,3.8-1.6c2.2-0.9,2.8-2.3,2.1-4.6c-0.4-1.1-1.3-1.3-2.3-1.4c-1.6-0.1-2.5,0.4-2.9,1.4c-0.2,0.5-0.2,1.1-0.4,1.8
			c-0.7,0-1.4,0-2.1,0c-0.5-2.7,1.1-4.9,3.8-5.3c0.1,0,0.2,0,0.4,0c4.6-0.4,6.3,1.1,6.3,5.7c0,3.3,0,6.5,0,9.8
			c0,1.1,0.2,1.9,1.8,1.8c-0.2,0.7-0.3,1.6-0.7,1.9c-0.9,0.6-2.4,0.1-2.9-0.8C458.4,129,458.2,128.5,458,128z M458,120.2
			c-1.6,0.7-3,1.2-4.4,1.9c-1.8,0.9-2.4,3.9-1.1,5.4c0.3,0.4,0.9,0.7,1.4,0.8c1.7,0.3,3.3-0.7,3.6-2.5
			C457.9,124,457.9,122.1,458,120.2z"/>
		<path fill="#1A1A18" d="M472.2,120.8c0.3-1.9,0.5-3.9,1.1-5.8c0.9-2.8,2.8-4.1,5.8-4.1c2.9,0,4.8,1.3,5.7,4.1
			c1.2,3.8,1.2,7.8,0,11.6c-0.9,2.8-2.8,4-5.8,4c-3,0-4.9-1.2-5.7-4.1C472.7,124.7,472.6,122.8,472.2,120.8z M483,120.8
			c-0.3-1.8-0.4-3.5-0.8-5.2c-0.4-1.7-1.6-2.5-3.2-2.5c-1.6,0-2.8,0.8-3.2,2.5c-0.9,3.4-0.9,6.8,0,10.2c0.4,1.7,1.5,2.5,3.2,2.6
			c1.6,0,2.8-0.7,3.2-2.5C482.6,124.3,482.7,122.6,483,120.8z"/>
		<path fill="#1A1A18" d="M432.3,120.9c-0.3,1.9-0.5,3.9-1.1,5.8c-0.8,2.8-2.8,4-5.8,4c-2.9,0-4.9-1.3-5.7-4.1
			c-1.1-3.8-1.1-7.7,0-11.5c0.9-2.8,2.8-4.2,5.8-4.1c3,0,5,1.3,5.8,4.2C431.9,117,432,118.9,432.3,120.9z M429.5,120.8
			c-0.3-1.8-0.4-3.5-0.8-5.2c-0.4-1.8-1.6-2.5-3.2-2.6c-1.6,0-2.8,0.8-3.2,2.5c-0.9,3.4-0.9,6.9,0,10.4c0.5,1.7,1.6,2.5,3.2,2.5
			c1.5,0,2.7-0.8,3.1-2.4C429.1,124.3,429.2,122.6,429.5,120.8z"/>
		<path fill="#1A1A18" d="M369.1,120.9c-3.3,0-6.2,0-9.4,0c0.2,1.8,0.3,3.5,0.7,5.2c0.4,1.7,1.4,2.4,2.9,2.4c1.4,0,2.4-0.8,2.8-2.5
			c0.2-0.7,0.2-1.4,0.4-2.1c0.8,0,1.5,0,2.2,0c0.6,2.5-0.9,5.5-3.3,6.4c-2.9,1.1-5.9,0.1-7-2.6c-0.6-1.6-1-3.3-1-5
			c0-2.5,0.1-5.1,0.6-7.5c0.5-2.8,2.4-4.2,5-4.3c2.9-0.1,4.7,1.1,5.4,3.9C368.8,116.7,368.8,118.7,369.1,120.9z M366.5,118.8
			c-0.2-1.5-0.4-2.7-0.7-3.9c-0.3-1.2-1.2-1.9-2.5-1.9s-2.3,0.5-2.8,1.7c-0.4,1.2-0.6,2.6-0.9,4.1c2,0,3.6,0,5.2,0
			C365.3,118.8,365.7,118.8,366.5,118.8z"/>
		<path fill="#1A1A18" d="M415.4,130.1c-0.9,0-1.6,0-2.5,0c0-0.4,0-0.8,0-1.2c0-4,0-8.1,0-12.1c0-2.2-0.6-3.2-2.2-3.4
			c-2.1-0.2-3.7,0.9-4.2,2.8c-0.1,0.6-0.2,1.2-0.2,1.8c0,3.6,0,7.1,0,10.7c0,0.4,0,0.8,0,1.3c-0.9,0-1.6,0-2.5,0
			c0-6.2,0-12.3,0-18.5c0.7,0,1.4,0,2.3,0c0,0.6,0.1,1.1,0.2,2c1-1.5,2.2-2.3,3.7-2.4c3.8-0.4,5.4,1.1,5.4,4.3
			C415.5,120.3,415.4,125.1,415.4,130.1z"/>
		<path fill="#1A1A18" d="M399.8,130.1c-0.9,0-1.6,0-2.5,0c0-0.5,0-0.9,0-1.3c0-4,0-8.1,0-12.1c0-2.1-0.6-3.1-2.1-3.3
			c-1.9-0.3-3.7,0.7-4.2,2.5c-0.2,0.6-0.2,1.2-0.2,1.8c0,3.7,0,7.4,0,11.1c0,0.4,0,0.8,0,1.3c-0.9,0-1.6,0-2.5,0
			c0-6.2,0-12.3,0-18.5c0.7,0,1.4,0,2.2,0c0,0.6,0.1,1.2,0.1,2c1.6-2.3,3.7-2.8,6.2-2.4c1.5,0.3,2.4,1.2,2.8,2.6
			c0.1,0.4,0.2,0.9,0.2,1.4C399.8,120.1,399.8,125,399.8,130.1z"/>
		<path fill="#1A1A18" d="M322.4,123.6c0.8,0,1.6,0,2.3,0c0.7,4.7-3.4,8.2-7.8,6.7c-1.6-0.5-2.6-1.7-3.1-3.2
			c-1.4-4.1-1.5-8.3,0-12.5c1-3,3.9-4.3,7.1-3.5c2.6,0.7,4.2,3.1,3.8,6.1c-0.8,0-1.5,0-2.3,0c-0.1-0.7-0.2-1.3-0.4-1.8
			c-0.4-1.4-1.3-2.1-2.6-2.1c-1.4-0.1-2.4,0.5-2.9,1.8c-0.3,0.9-0.6,1.9-0.6,2.8c0,2.5,0.1,4.9,0.2,7.4c0,0.4,0.2,0.8,0.3,1.1
			c0.6,1.3,1.5,1.9,2.9,1.9c1.3,0,2.2-0.7,2.6-2.1c0.2-0.4,0.3-0.9,0.4-1.3C322.3,124.5,322.4,124.1,322.4,123.6z"/>
		<path fill="#1A1A18" d="M440.8,125.7c1.1-4.1,2.1-8.2,3.2-12.3c0.6-2.3,0.6-2.3,3.2-1.9c-0.8,2.8-1.6,5.7-2.4,8.5
			c-0.8,2.9-1.6,5.8-2.4,8.8c-0.2,1-0.6,1.5-1.7,1.3c-0.5-0.1-0.9,0-1.5,0c-1.7-6.2-3.3-12.4-5-18.6c1,0,1.8,0,2.8,0
			c1.2,4.7,2.4,9.5,3.6,14.2C440.7,125.7,440.7,125.7,440.8,125.7z"/>
		<path fill="#1A1A18" d="M355.1,111.4c-1,3.6-1.9,7-2.9,10.4c-0.6,2.3-1.4,4.7-1.9,7.1c-0.2,1-0.7,1.4-1.8,1.3
			c-0.4-0.1-0.9,0-1.4,0c-1.7-6.2-3.3-12.3-5-18.6c1,0,1.8,0,2.8,0c1.2,4.7,2.4,9.5,3.6,14.2c0.1,0,0.1,0,0.2,0c0.8-3,1.6-6,2.4-8.9
			c0.4-1.4,0.8-2.8,1.1-4.2c0.2-1,0.7-1.4,1.6-1.2C354.1,111.5,354.5,111.4,355.1,111.4z"/>
		<path fill="#1A1A18" d="M329.1,113.5c-0.9,0-1.7,0-2.5,0c0-0.7,0-1.3,0-2c0.8,0,1.6-0.1,2.5-0.1c0-1.6,0-3.2,0-4.7
			c0.2-0.1,0.2-0.2,0.3-0.2c2.2-0.2,2.2-0.2,2.2,2c0,0.9,0,1.9,0,2.9c1,0,2,0,3,0c0,0.8,0,1.4,0,2.1c-1,0-1.9,0-3,0c0,1.1,0,2.1,0,3
			c0,3.1,0,6.1,0,9.2c0,2.2,0.2,2.4,2.4,2.5c0.2,0,0.4,0,0.6,0.1c0,0.7,0,1.3,0,2.2c-1.2-0.1-2.4,0-3.6-0.3
			c-1.3-0.2-1.9-1.2-1.9-2.7c0-4.2,0-8.4,0-12.6C329.1,114.5,329.1,114.1,329.1,113.5z"/>
		<path fill="#1A1A18" d="M465.2,113.5c-0.9,0-1.7,0-2.5,0c0-0.7,0-1.3,0-2.1c0.8,0,1.5,0,2.5,0c0-1.7,0-3.3,0-5c0.9,0,1.7,0,2.6,0
			c0,1.6,0,3.2,0,4.9c1,0,1.9,0,3,0c0,0.8,0,1.4,0,2.1c-0.9,0-1.9,0-3,0c0,0.5,0,0.9,0,1.3c0,3.4,0,6.8,0,10.1c0,3,0,3,3,3.4
			c0,0.6,0,1.3,0,2.2c-1.2-0.1-2.5-0.1-3.6-0.3c-1.3-0.3-1.8-1.2-1.8-2.8c0-1.6,0-3.2,0-4.8C465.2,119.7,465.2,116.7,465.2,113.5z"
			/>
		<path fill="#1A1A18" d="M381.1,105.2c0.9,0,1.7,0,2.6,0c0,8.3,0,16.6,0,24.9c-0.9,0-1.7,0-2.6,0
			C381.1,121.8,381.1,113.6,381.1,105.2z"/>
		<path fill="#1A1A18" d="M489.2,111.5c0.8,0,1.5,0,2.2,0c0,0.8,0,1.6,0,2.4c0.8-0.8,1.4-1.8,2.3-2.3s2-0.6,3.2-0.9
			c0,1.1,0,1.9,0,2.7c-0.1,0-0.1,0.1-0.2,0.1c-3.2-0.2-5,1.4-5,4.7c0,3.5,0,7,0,10.5c0,0.4,0,0.8,0,1.3c-0.9,0-1.6,0-2.5,0
			C489.2,123.9,489.2,117.7,489.2,111.5z"/>
		<path fill="#1A1A18" d="M339.4,130.1c-0.9,0-1.6,0-2.5,0c0-6.2,0-12.3,0-18.6c0.8,0,1.6,0,2.5,0
			C339.4,117.7,339.4,123.8,339.4,130.1z"/>
		<path d="M499.2,55.4c0-3.7,2.9-6.5,6.6-6.5c3.7,0,6.6,2.9,6.6,6.6c0,3.7-3,6.6-6.7,6.6C502,62,499.1,59.1,499.2,55.4z M511.1,55.5
			c0-3-2.3-5.3-5.3-5.4c-2.9,0-5.5,2.4-5.5,5.4c0,3,2.4,5.4,5.4,5.4C508.8,60.8,511.1,58.5,511.1,55.5z"/>
		<path d="M336.9,108.3c0-1.1,0-2.1,0-3.2c0.8,0,1.6,0,2.5,0c0,1.1,0,2.1,0,3.2C338.5,108.3,337.8,108.3,336.9,108.3z"/>
	</g>
	<text transform="matrix(1 0 0 1 502.7259 58.777)" font-family="'Poppins-Regular'" font-size="9.7298px">R</text>
</g>
</svg>
