<?xml version="1.0" encoding="utf-8"?>
<!-- Generator: Adobe Illustrator 28.0.0, SVG Export Plug-In . SVG Version: 6.00 Build 0)  -->
<svg version="1.1" id="Layer_1" xmlns="http://www.w3.org/2000/svg" xmlns:xlink="http://www.w3.org/1999/xlink" x="0px" y="0px"
	 viewBox="0 0 55 55" enable-background="new 0 0 55 55" xml:space="preserve">
<g>
	<path fill="#AFAFAF" d="M47.4,54.2c-13.8,0-27.6,0-41.4,0c-1.6-0.7-2.6-1.8-2.6-3.7c0-8.7,0-17.3,0-26C3.4,22.3,4.7,21,7,21
		c1,0,2,0,3,0c0-1.1,0-2.2,0-3.2c0-7.5,5.1-14.3,12.4-16.2c0.8-0.2,1.7-0.4,2.5-0.6c1.1,0,2.2,0,3.3,0c0.2,0.1,0.4,0.2,0.5,0.2
		c7.9,1.1,13.7,7.2,14.4,15.2c0.1,1.5,0.1,3,0.2,4.6c0.9,0,1.7,0,2.4,0c3,0,4.2,1.2,4.2,4.1c0,8.2,0,16.5,0,24.7
		C50,51.9,49.4,53.5,47.4,54.2z M46.6,50.9c0-8.9,0-17.7,0-26.5c-13.3,0-26.6,0-39.8,0c0,8.9,0,17.7,0,26.5
		C20,50.9,33.3,50.9,46.6,50.9z M40,20.9c0.5-6.2-1.1-11.4-6.6-14.7c-4.6-2.8-9.5-2.6-13.9,0.3c-5.1,3.4-6.6,8.4-6,14.4
		C22.2,20.9,31,20.9,40,20.9z"/>
	<path fill="#AFAFAF" d="M26.7,31c3.7,0,6.5,2.9,6.5,6.6c0,3.7-3,6.6-6.6,6.6c-3.7,0-6.6-3-6.6-6.7C20.1,33.8,23,31,26.7,31z
		 M26.7,41c1.8,0,3.3-1.6,3.3-3.3c0-1.8-1.6-3.4-3.4-3.4c-1.8,0-3.3,1.6-3.3,3.3C23.3,39.4,24.9,41,26.7,41z"/>
</g>
</svg>
