<svg xmlns="http://www.w3.org/2000/svg" version="1.2" viewBox="0 0 1263 1186">
  <path fill="#e65e24" d="M1214.2 1185.7H48.8C22 1185.7.3 1164 .3 1137.2V367.8c0-26.7 21.7-48.5 48.5-48.5h1165.4c26.7 0 48.5 21.8 48.5 48.5v769.4c0 26.8-21.8 48.5-48.5 48.5z"/>
  <path fill-rule="evenodd" fill="#ffffff" d="M496.3 631.5 517 696l21-64.5h15.7L524 714h-13.8l-29.6-82.5zm80 21.2V714h-13.7v-61.3zm-14.7-15.9q0-3.2 2-5.3 2.1-2.1 5.8-2.1 3.7 0 5.8 2.1 2 2.1 2 5.3 0 3.1-2 5.2-2.1 2-5.8 2-3.7 0-5.8-2-2-2.1-2-5.2zm64 60.5q0-3.6-3.1-5.6-3-1.9-10-3.4-7-1.4-11.7-3.7-10.3-5-10.3-14.4 0-8 6.7-13.3 6.6-5.3 17-5.3 10.9 0 17.7 5.4 6.8 5.5 6.8 14.1h-13.8q0-3.9-2.9-6.5-3-2.7-7.8-2.7-4.6 0-7.5 2.1-2.8 2.1-2.8 5.6 0 3.2 2.7 4.9 2.6 1.8 10.7 3.6 8.1 1.7 12.7 4.2 4.7 2.5 6.9 5.9 2.2 3.5 2.2 8.4 0 8.3-6.8 13.4-6.9 5.1-18 5.1-7.5 0-13.4-2.7t-9.2-7.5q-3.3-4.7-3.3-10.2h13.4q.3 4.9 3.7 7.5 3.4 2.6 9 2.6 5.4 0 8.3-2 2.8-2.1 2.8-5.5zm40.2-44.6V714H652v-61.3zm-14.6-15.9q0-3.2 2-5.3 2-2.1 5.7-2.1 3.8 0 5.8 2.1t2 5.3q0 3.1-2 5.2-2 2-5.8 2-3.7 0-5.7-2-2-2.1-2-5.2zm33.1 1H698v14.9h10.8v10.2H698v34.2q0 3.5 1.4 5.1 1.4 1.5 5 1.5 2.3 0 4.8-.5v10.6q-4.7 1.3-9.1 1.3-15.8 0-15.8-17.5v-34.7h-10.1v-10.2h10.1zm30.8 45.7v-.7q0-9 3.5-16.2 3.6-7.3 10.1-11.1 6.4-3.9 14.8-3.9 12.4 0 20.1 8 7.8 8 8.4 21.1v3.3q0 9-3.5 16.2-3.4 7.1-9.9 11-6.5 3.9-15 3.9-13 0-20.8-8.6-7.7-8.6-7.7-23zm13.7.5q0 9.4 3.9 14.8 3.9 5.3 10.9 5.3t10.8-5.4q3.9-5.4 3.9-15.9 0-9.3-4-14.7-3.9-5.5-10.8-5.5-6.7 0-10.7 5.4-4 5.3-4 16zm87-31.6v12.9q-2.7-.5-5.6-.5-9.5 0-12.8 7.3V714h-13.7v-61.3h13.1l.3 6.9q5-8 13.9-8 2.9 0 4.8.8zM370.4 812.8q0-5.5-3.9-8.4-3.8-3-13.7-6-10-3-15.9-6.7-11.3-7-11.3-18.4 0-10 8.1-16.4 8.2-6.5 21.2-6.5 8.6 0 15.3 3.2 6.7 3.1 10.6 9 3.9 5.9 3.9 13h-14.3q0-6.5-4.1-10.1-4-3.7-11.6-3.7-7 0-10.9 3-3.8 3-3.8 8.4 0 4.6 4.2 7.6 4.1 3 13.8 5.9 9.6 2.8 15.4 6.5 5.9 3.6 8.6 8.4 2.7 4.7 2.7 11 0 10.4-7.9 16.5-7.9 6-21.4 6-9 0-16.5-3.3t-11.7-9.1q-4.1-5.9-4.1-13.6h14.3q0 7 4.7 10.8 4.6 3.9 13.3 3.9 7.4 0 11.2-3 3.8-3.1 3.8-8zm63 21.2-.3-6q-6.1 7.1-17.2 7.1-10 0-15.2-5.8-5.1-5.8-5.1-16.9v-39.7h13.8v39.5q0 11.7 9.7 11.7 10 0 13.5-7.2v-44h13.8V834zm52.2-9.9q5.1 0 8.5-3 3.4-3 3.6-7.4h13q-.2 5.7-3.6 10.7-3.3 5-9 7.8-5.7 2.9-12.4 2.9-12.8 0-20.4-8.3-7.5-8.3-7.5-23v-1.4q0-14 7.5-22.4 7.5-8.4 20.4-8.4 10.9 0 17.8 6.4 6.9 6.3 7.2 16.7h-13q-.2-5.3-3.6-8.7-3.3-3.4-8.5-3.4-6.7 0-10.4 4.9-3.6 4.8-3.6 14.7v2.2q0 9.9 3.5 14.9 3.7 4.8 10.5 4.8zm60.7 0q5.1 0 8.5-3 3.4-3 3.7-7.4h12.9q-.2 5.7-3.5 10.7-3.4 5-9.1 7.8-5.7 2.9-12.4 2.9-12.8 0-20.3-8.3-7.6-8.3-7.6-23v-1.4q0-14 7.5-22.4 7.5-8.4 20.4-8.4 10.9 0 17.8 6.4 6.9 6.3 7.2 16.7h-12.9q-.3-5.3-3.7-8.7-3.3-3.4-8.5-3.4-6.7 0-10.3 4.9-3.7 4.8-3.7 14.7v2.2q0 9.9 3.6 14.9 3.6 4.8 10.4 4.8zm62.5 11q-13.1 0-21.2-8.2-8.1-8.3-8.1-22v-1.7q0-9.1 3.5-16.3 3.5-7.3 9.9-11.3 6.4-4 14.3-4 12.5 0 19.3 8 6.9 8 6.9 22.6v5.5h-40.1q.7 7.6 5.1 12 4.5 4.4 11.2 4.4 9.5 0 15.4-7.6l7.4 7.1q-3.7 5.5-9.8 8.5-6.1 3-13.8 3zm-1.6-52.5q-5.7 0-9.2 4-3.5 4-4.4 11h26.2v-1q-.5-6.9-3.7-10.4-3.2-3.6-8.9-3.6zm71.2 34.7q0-3.6-3-5.6-3-1.9-10.1-3.4-7-1.4-11.7-3.7-10.3-5-10.3-14.4 0-8 6.7-13.3 6.7-5.3 17-5.3 11 0 17.7 5.4 6.8 5.5 6.8 14.1h-13.8q0-3.9-2.9-6.6-3-2.6-7.8-2.6-4.6 0-7.4 2.1-2.9 2.1-2.9 5.6 0 3.2 2.7 4.9 2.6 1.8 10.7 3.6 8.1 1.7 12.7 4.2 4.7 2.5 6.9 5.9 2.3 3.5 2.3 8.4 0 8.3-6.9 13.4t-18 5.1q-7.5 0-13.4-2.7t-9.2-7.5q-3.2-4.7-3.2-10.2h13.3q.3 4.9 3.7 7.5 3.4 2.6 9 2.6 5.5 0 8.3-2 2.8-2.1 2.8-5.5zm59.9 0q0-3.6-3.1-5.6-3-1.9-10-3.4-7-1.4-11.7-3.7-10.3-5-10.3-14.4 0-8 6.7-13.3 6.6-5.3 16.9-5.3 11 0 17.8 5.4 6.8 5.5 6.8 14.1h-13.8q0-3.9-2.9-6.6-3-2.6-7.9-2.6-4.5 0-7.4 2.1-2.8 2.1-2.8 5.6 0 3.2 2.7 4.9 2.6 1.8 10.7 3.6 8.1 1.7 12.7 4.2t6.9 5.9q2.2 3.5 2.2 8.4 0 8.3-6.8 13.4-6.9 5.1-18 5.1-7.5 0-13.4-2.7t-9.2-7.5q-3.3-4.7-3.3-10.2h13.4q.3 4.9 3.7 7.5 3.4 2.6 9 2.6 5.4 0 8.3-2 2.8-2.1 2.8-5.5zm44.1 16.7h-13.8v-51.1h-9.3v-10.2h9.3v-5.6q0-10.2 5.7-15.7 5.7-5.6 15.9-5.6 3.6 0 7.7 1l-.4 10.8q-2.2-.5-5.2-.5-9.9 0-9.9 10.2v5.4h12.5v10.2h-12.5zm60 0-.3-6q-6.1 7.1-17.3 7.1-9.9 0-15.1-5.8-5.1-5.8-5.1-16.9v-39.7h13.8v39.6q0 11.6 9.7 11.6 10 0 13.5-7.2v-44h13.8V834zm41.6-87v87h-13.8v-87zm29.7 0v87h-13.8v-87zm23.4 25.7 13 41.6 12.5-41.6h14.6l-24.3 70.6q-5.6 15.5-19 15.5-3 0-6.7-1.1v-10.6l2.6.2q5.2 0 7.8-1.9 2.7-1.9 4.2-6.4l2-5.3-21.5-61zM541.8 954l-6.7-19.2h-32l-6.7 19.2h-14.9l31.2-82.5h12.8l31.3 82.5zM519 889l-11.9 34.3H531zm43.1 33.8q0-14.1 6.6-22.7 6.5-8.6 17.6-8.6 9.7 0 15.7 6.8v-31.4h13.8v87h-12.5l-.6-6.3q-6.2 7.5-16.5 7.5-10.8 0-17.5-8.7-6.6-8.7-6.6-23.6zm13.8 1.2q0 9.4 3.5 14.6 3.7 5.2 10.3 5.2 8.4 0 12.3-7.5v-26.2q-3.8-7.3-12.2-7.3-6.7 0-10.3 5.3-3.6 5.3-3.6 15.9zm51.7-1.2q0-14.1 6.5-22.7 6.6-8.6 17.7-8.6 9.7 0 15.7 6.8v-31.4h13.8v87h-12.5l-.7-6.3q-6.1 7.5-16.5 7.5-10.7 0-17.4-8.7-6.6-8.7-6.6-23.6zm13.7 1.2q0 9.4 3.6 14.6 3.6 5.2 10.3 5.2 8.4 0 12.3-7.5v-26.2q-3.8-7.3-12.2-7.3-6.7 0-10.3 5.3-3.7 5.3-3.7 15.9zm81.3 31.1q-13.1 0-21.2-8.3-8.1-8.2-8.1-21.9v-1.7q0-9.2 3.5-16.4 3.6-7.3 10-11.3 6.4-4 14.2-4 12.5 0 19.3 8 6.9 8 6.9 22.6v5.5h-40q.6 7.6 5 12 4.5 4.5 11.2 4.5 9.5 0 15.4-7.7l7.4 7.1q-3.6 5.5-9.8 8.5-6.1 3.1-13.8 3.1zm-1.6-52.6q-5.7 0-9.2 4-3.5 4-4.4 11.1h26.2v-1.1q-.4-6.9-3.7-10.4-3.2-3.6-8.9-3.6zm34.3 20.3q0-14.1 6.6-22.7 6.5-8.6 17.6-8.6 9.7 0 15.7 6.8v-31.4H809v87h-12.5l-.6-6.3q-6.2 7.5-16.5 7.5-10.8 0-17.5-8.7-6.6-8.7-6.6-23.6zm13.8 1.2q0 9.4 3.5 14.6 3.7 5.2 10.3 5.2 8.4 0 12.3-7.5v-26.2q-3.8-7.3-12.2-7.3-6.7 0-10.3 5.3-3.6 5.3-3.6 15.9z" class="b"/>
  <path fill="#10773f" stroke="#f9f5f4" stroke-miterlimit="10" stroke-width="12" d="M881 256c0 137.6-111.6 249.2-249.2 249.2S382.6 393.6 382.6 256 494.2 6.8 631.8 6.8 881 118.4 881 256z"/>
  <path fill="#ffffff" d="M603.3 309.5c16.2-16.3 31.4-31.7 46.7-47.1 26.2-26.2 52.5-52.4 78.7-78.7 2.8-2.8 4.9-2.8 7.6.1 8.1 8.2 16.3 16.2 24.4 24.4 4.3 4.3 4.3 4.9-.2 9.3q-45.6 45.7-91.3 91.4-30.1 30-60.1 60.1c-5.3 5.3-5.6 5.3-10.8.1l-92.4-92.4c-4.3-4.2-4.3-5-.3-9q12-12.1 24-24.1c4.2-4.1 4.8-4 9 .3q30.8 30.7 61.5 61.4c1.1 1.1 1.8 2.4 3.2 4.2z" class="b"/>
</svg>
