<?xml version="1.0" encoding="utf-8"?>
<!-- Generator: Adobe Illustrator 28.0.0, SVG Export Plug-In . SVG Version: 6.00 Build 0)  -->
<svg version="1.1" id="Layer_1" xmlns="http://www.w3.org/2000/svg" xmlns:xlink="http://www.w3.org/1999/xlink" x="0px" y="0px"
	 viewBox="0 0 55 55" enable-background="new 0 0 55 55" xml:space="preserve">
<g>
	<g>
		<path fill="#E65E24" d="M17.6,23.9c0.2-2.8-0.9-6.1,3.6-6.4c-1.4-3.2-2.7-6.3-4-9.4c-0.3-0.8-0.7-1.6-1-2.4
			c-0.5-1.2-0.1-2.1,1.1-2.6c1-0.5,2.1-0.9,3.1-1.3c1.5-0.6,2.1-0.3,2.9,1.1c1.5,2.9,2.9,5.8,4.3,8.6c0.2,0.4,0.4,0.7,0.7,1.3
			c1.6-3.2,3.1-6.3,4.6-9.3c1.1-2.3,1.5-2.4,3.8-1.5c0.7,0.3,1.4,0.6,2.2,0.9c1.6,0.7,1.9,1.4,1.2,3c-1.6,3.8-3.2,7.5-4.8,11.5
			c4.3,0.2,3.5,3.5,3.6,6.4c0.6,0,1.1,0.1,1.6,0.1c3.4,0,6.8,0,10.2,0c2.2,0,3.2,1,3.2,3.2c0,8,0,15.9,0,23.9c0,2.2-1,3.2-3.2,3.2
			c-15,0-30,0-45,0c-2.2,0-3.2-1-3.2-3.1c0-4.8,0-9.6,0-14.4c0-0.5,0.6-1,0.9-1.6c0.3,0.5,0.9,1,0.9,1.5c0.1,4.6,0.1,9.3,0,13.9
			c0,1.3,0.4,1.8,1.8,1.8c14.7,0,29.5,0,44.2,0c1.3,0,1.8-0.4,1.8-1.8c0-7.7,0-15.4,0-23.1c0-1.4-0.5-1.9-1.9-1.9
			c-14.7,0-29.4,0-44.1,0c-1.4,0-1.9,0.5-1.8,1.9c0.1,0.8,0.1,1.7-0.1,2.5c-0.1,0.3-0.6,0.9-0.8,0.8c-0.4-0.1-0.9-0.5-1-0.8
			c-0.1-1.4-0.1-2.7,0.1-4.1c0.2-1.4,1.3-2.1,2.9-2.1c3.4,0,6.8,0,10.2,0C16.5,23.9,17,23.9,17.6,23.9z M17.9,4.9
			c1.8,4.1,3.4,8.1,5.1,12c0.2,0.4,0.8,0.7,1.2,0.7c2.7,0.1,5.4,0.1,8.1,0c0.4,0,1.1-0.2,1.2-0.5c1.8-4,3.5-8,5.2-12.2
			c-1.3-0.5-2.4-1-3.6-1.5c-0.3,0.6-0.5,1-0.7,1.4c-1.7,3.4-3.3,6.7-5,10.1c-0.2,0.4-0.7,0.9-1.1,0.9c-0.3,0.1-0.7-0.5-1-0.9
			c-0.3-0.3-0.4-0.8-0.6-1.2c-1.7-3.4-3.4-6.9-5.2-10.4C20.3,3.9,19.2,4.3,17.9,4.9z M37.1,23.9c0-0.9,0-1.6,0-2.4c0-1.8-0.2-2-2-2
			c-3.9,0-7.8,0-11.7,0c-4.1,0-4-0.6-3.8,4.1c0,0.1,0.1,0.2,0.2,0.3C25.4,23.9,31.1,23.9,37.1,23.9z"/>
		<path fill="#E65E24" d="M17,50.4c-2,0-4.1,0-6.1,0c-1.7,0-2.2-0.5-2.2-2.2c0-1.5,0-3,0-4.5c0.1-2.9,1.9-4.8,4.9-4.9
			c2.3,0,4.7,0,7,0c2.6,0,4.7,1.9,4.8,4.5c0.1,1.7,0,3.4,0,5.1c0,1.3-0.7,2-2,2C21.2,50.4,19.1,50.4,17,50.4L17,50.4z M23.5,48.5
			c0-1.9,0.1-3.7,0-5.5c-0.1-1.4-1.3-2.4-2.7-2.4c-2.5-0.1-5.1-0.1-7.6,0c-1.4,0-2.4,1-2.6,2.4c-0.2,1.8,0,3.7,0,5.5
			C14.9,48.5,19.1,48.5,23.5,48.5z"/>
		<path fill="#E65E24" d="M17,38.3c-3,0-5.3-2.3-5.3-5.3c0-2.9,2.4-5.3,5.3-5.3c2.9,0,5.3,2.4,5.3,5.3C22.2,36.1,19.9,38.3,17,38.3z
			 M20.4,33c0-1.9-1.7-3.5-3.6-3.4c-1.9,0.1-3.4,1.6-3.4,3.5c0,1.9,1.6,3.5,3.5,3.5C19,36.5,20.5,35,20.4,33z"/>
		<path fill="#E65E24" d="M38.5,32.2c-2.8,0-5.6,0-8.5,0c-0.5,0-1.3-0.5-1.4-0.8c-0.1-1,0.7-0.9,1.4-0.9c5.7,0,11.4,0,17.1,0
			c0.7,0,1.6,0,1.4,0.9c0,0.4-1,0.8-1.5,0.8C44.2,32.2,41.3,32.2,38.5,32.2z"/>
		<path fill="#E65E24" d="M38.7,41.2c-2.9,0-5.8,0-8.6,0c-0.1,0-0.2,0-0.3-0.1c-0.8-0.3-0.7-1.5,0.1-1.7c0,0,0.1,0,0.1,0
			c5.7-0.1,11.4,0,17.1,0c0.7,0,1.6,0,1.4,0.9c0,0.3-0.9,0.8-1.4,0.8C44.3,41.2,41.5,41.2,38.7,41.2z"/>
		<path fill="#E65E24" d="M41.3,34.8c2,0,4-0.1,6,0c0.1,0,0.2,0,0.4,0.1c0.6,0.4,0.5,1.3-0.1,1.6c-0.1,0-0.2,0-0.2,0
			c-4,0.1-8,0.1-12,0c-0.1,0-0.2,0-0.3-0.1c-0.6-0.3-0.6-1.2,0-1.5c0.1-0.1,0.2-0.1,0.3-0.1C37.3,34.8,39.3,34.8,41.3,34.8z"/>
		<path fill="#E65E24" d="M42.5,45.7c-1.5,0-3.1,0.1-4.7,0c-0.1,0-0.2-0.1-0.3-0.1c-0.6-0.4-0.5-1.3,0.1-1.5c0.1,0,0.1,0,0.2,0
			c3.2-0.1,6.4-0.1,9.6,0c0.1,0,0.2,0.1,0.4,0.2c0.5,0.4,0.5,1.3-0.1,1.5c-0.1,0-0.1,0-0.2,0C45.8,45.7,44.2,45.6,42.5,45.7z"/>
		<path fill="#E65E24" d="M28.5,20.2c0.3,0.5,0.9,1,0.9,1.4c0,0.4-0.7,1.1-1.1,1.1c-0.4,0-1.2-0.6-1.2-1c0-0.5,0.5-1,0.8-1.5
			C28.1,20.2,28.3,20.2,28.5,20.2z"/>
	</g>
</g>
</svg>
