<?xml version="1.0" encoding="utf-8"?>
<!-- Generator: Adobe Illustrator 28.0.0, SVG Export Plug-In . SVG Version: 6.00 Build 0)  -->
<svg version="1.1" id="Layer_1" xmlns="http://www.w3.org/2000/svg" xmlns:xlink="http://www.w3.org/1999/xlink" x="0px" y="0px"
	 viewBox="0 0 55 55" enable-background="new 0 0 55 55" xml:space="preserve">
<g>
	<path fill="#AFAFAF" d="M42,28.5c0,6.4,0,12.9,0,19.3c0,1.4-0.8,2.2-2.2,2.2c-7.5,0-15,0-22.5,0c-0.4,0-0.6-0.1-0.9-0.4
		c-1.6-1.6-3.2-3.3-4.9-4.9c-0.2-0.2-0.3-0.5-0.3-0.8c0-11.6,0-23.2,0-34.8C11.1,7.8,12,7,13.3,7C22.1,7,31,7,39.8,7
		C41.2,7,42,7.8,42,9.2C42,15.6,42,22,42,28.5z M12.5,43.4c1.1,0,2.1,0,3.1,0c1.3,0,2.1,0.8,2.1,2.2c0,0.9,0,1.8,0,2.7
		c0,0.1,0,0.3,0,0.4c0.2,0,0.3,0,0.4,0c7.2,0,14.4,0,21.6,0c0.7,0,1-0.2,1-1c0-12.8,0-25.6,0-38.4c0-0.7-0.2-1-1-1
		c-8.8,0-17.5,0-26.2,0c-0.8,0-1,0.2-1,1c0,11.2,0,22.4,0,33.6C12.5,43.1,12.5,43.2,12.5,43.4z M13.5,44.8c0.9,0.9,1.8,1.8,2.8,2.8
		c0-0.8,0-1.5,0-2.3c0-0.2-0.3-0.4-0.5-0.5C15,44.8,14.3,44.8,13.5,44.8z"/>
	<path fill="#AFAFAF" d="M26.6,31.2c3.1,0,6.3,0,9.4,0c0.2,0,0.3,0,0.4,0c0.3,0.1,0.6,0.4,0.5,0.7c0,0.3-0.2,0.6-0.6,0.6
		c-0.1,0-0.2,0-0.4,0c-6.3,0-12.6,0-18.9,0c0,0-0.1,0-0.1,0c-0.5,0-0.8-0.3-0.8-0.7c0-0.4,0.3-0.7,0.8-0.7
		C20.2,31.2,23.4,31.2,26.6,31.2z"/>
	<path fill="#AFAFAF" d="M30,14.1c0,0.6,0,1.2-0.1,1.8c-0.3,1.6-1.9,2.7-3.5,2.6c-1.8-0.2-3-1.5-3.1-3.2c0-0.8,0-1.5,0-2.2
		c0-1.8,1.5-3.2,3.3-3.2s3.3,1.4,3.4,3.2C29.9,13.3,29.9,13.7,30,14.1C29.9,14.1,29.9,14.1,30,14.1z M28.6,14c0-0.4,0-0.7,0-1.1
		c0-1.1-0.9-1.9-2-1.9c-1.1,0-2,0.8-2,1.9c0,0.7,0,1.4,0,2.1c0,1.1,0.9,2,2,2c1.1,0,2-0.9,2-2C28.6,14.8,28.6,14.4,28.6,14z"/>
	<path fill="#AFAFAF" d="M26.6,33.9c3.2,0,6.4,0,9.6,0c0.3,0,0.6,0.1,0.8,0.4c0.2,0.4-0.1,0.8-0.6,0.9c-0.1,0-0.2,0-0.3,0
		c-6.3,0-12.6,0-18.9,0c-0.1,0-0.1,0-0.2,0c-0.4,0-0.7-0.3-0.7-0.7s0.3-0.7,0.7-0.7c2.5,0,5.1,0,7.6,0
		C25.2,33.9,25.9,33.9,26.6,33.9z"/>
	<path fill="#AFAFAF" d="M26.6,38.5c-3.2,0-6.4,0-9.5,0c-0.2,0-0.4,0-0.5-0.1c-0.3-0.1-0.4-0.4-0.4-0.7c0-0.3,0.3-0.5,0.6-0.6
		c0.1,0,0.2,0,0.3,0c6.3,0,12.6,0,18.9,0c0.2,0,0.4,0,0.5,0.1c0.3,0.1,0.4,0.4,0.4,0.7c-0.1,0.3-0.3,0.5-0.6,0.5c-0.1,0-0.3,0-0.4,0
		C32.8,38.5,29.7,38.5,26.6,38.5z"/>
	<path fill="#AFAFAF" d="M26.6,39.9c3.2,0,6.3,0,9.5,0c0.2,0,0.4,0,0.5,0.1c0.3,0.1,0.4,0.4,0.4,0.7c0,0.3-0.3,0.5-0.6,0.6
		c-0.1,0-0.2,0-0.3,0c-6.3,0-12.6,0-18.9,0c-0.2,0-0.4,0-0.5-0.1c-0.3-0.1-0.4-0.4-0.4-0.7c0.1-0.3,0.3-0.5,0.6-0.5
		c0.1,0,0.2,0,0.4,0C20.3,39.9,23.5,39.9,26.6,39.9z"/>
	<path fill="#AFAFAF" d="M24,28.9c0.1-0.5,0.2-1,0.2-1.5c0-0.1,0-0.3-0.1-0.4c-0.3-0.3-0.7-0.7-1-1c-0.2-0.2-0.4-0.5-0.2-0.8
		c0.1-0.3,0.3-0.4,0.6-0.5c0.5,0,1-0.1,1.4-0.2c0.1,0,0.3-0.1,0.3-0.2c0.2-0.4,0.4-0.9,0.6-1.3c0.1-0.3,0.3-0.4,0.6-0.4
		s0.5,0.2,0.6,0.4c0.2,0.4,0.4,0.8,0.6,1.2c0.1,0.2,0.2,0.3,0.4,0.3c0.5,0,1,0.1,1.4,0.2c0.2,0.1,0.5,0.3,0.5,0.5
		c0.1,0.2,0,0.5-0.1,0.7c-0.3,0.4-0.7,0.7-1.1,1.1c-0.1,0.1-0.1,0.3-0.1,0.4c0,0.4,0.1,0.9,0.2,1.3c0.1,0.3,0,0.6-0.2,0.8
		c-0.3,0.2-0.5,0.1-0.8,0c-0.5-0.2-1-0.7-1.4-0.7c-0.5,0-1,0.5-1.4,0.7C24.5,29.8,24,29.5,24,28.9z M25,25.9c0.6,0.5,0.9,1,0.5,1.8
		c0.7-0.6,1.3-0.5,1.9,0c-0.3-0.8-0.1-1.3,0.6-1.8c-0.8,0.1-1.3-0.4-1.5-1.1C26.3,25.6,25.9,26,25,25.9z"/>
	<path fill="#AFAFAF" d="M30.2,27.8c0.1-0.2,0.2-0.3,0.2-0.4c0.3-0.3,0.5-0.6,0.9-0.9c0.1-0.1,0.3-0.1,0.5-0.1c0.5,0,0.5,0,0.5-0.5
		c0-1.6,0-3.2,0-4.9c0-1.6-0.5-2.2-2.1-2.6c-0.1,0-0.2,0-0.3-0.1c0.2-0.4,0.5-0.7,0.8-1.1c0-0.1,0.2-0.1,0.4,0
		c1.5,0.5,2.5,1.7,2.6,3.4c0,1.9,0,3.7,0,5.6c0,0.9-0.7,1.5-1.6,1.5C31.5,27.8,30.9,27.8,30.2,27.8z"/>
	<path fill="#AFAFAF" d="M23.2,18.4c-0.3,0.1-0.6,0.1-0.9,0.2c-1,0.4-1.5,1.1-1.5,2.1c0,1.8,0,3.5,0,5.3c0,0.3,0.1,0.5,0.4,0.4
		c0.3,0,0.6,0,0.8,0.4c0.2,0.2,0.4,0.4,0.6,0.6c0.1,0.1,0.1,0.2,0.2,0.3c-0.8,0-1.4,0.1-2.1,0c-0.8-0.1-1.3-0.7-1.3-1.6
		c0-1.2,0-2.5,0-3.7c0-0.7,0-1.4,0-2.1c0.1-1.5,1.2-2.7,2.6-3.1c0.1,0,0.3,0,0.3,0.1C22.7,17.7,23,18,23.2,18.4z"/>
</g>
</svg>
