<?xml version="1.0" encoding="utf-8"?>
<!-- Generator: Adobe Illustrator 28.0.0, SVG Export Plug-In . SVG Version: 6.00 Build 0)  -->
<svg version="1.1" id="Layer_1" xmlns="http://www.w3.org/2000/svg" xmlns:xlink="http://www.w3.org/1999/xlink" x="0px" y="0px"
	 viewBox="0 0 55 55" enable-background="new 0 0 55 55" xml:space="preserve">
<path fill="#AFAFAF" d="M27.5,15.3c5.3,0,10.6,0,15.9,0c2.7,0,4,1.3,4,4c0,5.8,0,11.6,0,17.4c0,2.7-1.3,4-4,4c-10.7,0-21.3,0-32,0
	c-2.4,0-3.7-1.4-3.8-3.8c0-6,0-11.9,0-17.9c0-2.4,1.4-3.8,3.8-3.8C16.8,15.3,22.2,15.3,27.5,15.3z M10.1,16.6
	c0.2,0.3,0.3,0.4,0.4,0.5c4.9,4.5,9.8,9,14.6,13.5c1.5,1.4,3.2,1.3,4.7-0.1c4.8-4.4,9.6-8.8,14.4-13.2c0.2-0.2,0.3-0.4,0.6-0.7
	C33.2,16.6,21.8,16.6,10.1,16.6z M33.6,28.8c-1,0.9-1.9,1.7-2.8,2.6c-2.1,2-4.5,2-6.6,0c-0.9-0.9-1.8-1.7-2.8-2.6
	c-3.8,3.5-7.5,6.9-11.2,10.3c0,0.1,0.1,0.1,0.1,0.2c11.5,0,22.9,0,34.4,0c0-0.1,0-0.1,0.1-0.2C41.1,35.7,37.4,32.3,33.6,28.8z
	 M34.5,28c3.8,3.5,7.5,6.9,11.4,10.5c0.1-0.6,0.2-1,0.2-1.4c0-6,0-12,0-18c0-0.4-0.1-0.9-0.2-1.5C42,21.1,38.3,24.5,34.5,28z
	 M20.5,28c-3.8-3.5-7.5-6.9-11.2-10.4c-0.5,1.1-0.5,19.8,0,20.7C13,34.9,16.7,31.5,20.5,28z"/>
</svg>
