<?xml version="1.0" encoding="utf-8"?>
<!-- Generator: Adobe Illustrator 28.0.0, SVG Export Plug-In . SVG Version: 6.00 Build 0)  -->
<svg version="1.1" id="Layer_1" xmlns="http://www.w3.org/2000/svg" xmlns:xlink="http://www.w3.org/1999/xlink" x="0px" y="0px"
	 viewBox="0 0 55 55" enable-background="new 0 0 55 55" xml:space="preserve">
<g>
	<path fill="#E65E24" d="M22.5,47.9c-4.2,0-8.3,0-12.5,0c0-4.4,0-8.8,0-13.3c4.1,0,8.3,0,12.5,0C22.5,39,22.5,43.4,22.5,47.9z
		 M11.6,36.2c0,3.2,0,6.3,0,9.4c0,0.7,0.4,0.6,0.9,0.6c2.1,0,4.1,0,6.2,0c0.7,0,1.4,0,2.1,0c0-3.4,0-6.7,0-10
		C17.8,36.2,14.8,36.2,11.6,36.2z"/>
	<path fill="#E65E24" d="M10.1,9.1c4.1,0,8.3,0,12.5,0c0,4.4,0,8.8,0,13.3c-4.2,0-8.3,0-12.5,0C10.1,18,10.1,13.6,10.1,9.1z
		 M20.8,20.8c0-3.4,0-6.6,0-9.9c-3.1,0-6.1,0-9.1,0c0,3.3,0,6.7,0,9.9C14.8,20.8,17.8,20.8,20.8,20.8z"/>
	<path fill="#E65E24" d="M46.5,47.9c-4.2,0-8.3,0-12.4,0c0-4.5,0-8.8,0-13.3c4.1,0,8.2,0,12.4,0C46.5,39,46.5,43.4,46.5,47.9z
		 M44.9,46.2c0-3.3,0-6.6,0-9.9c-3.1,0-6.1,0-9.1,0c0,3.3,0,6.6,0,9.9C38.8,46.2,41.9,46.2,44.9,46.2z"/>
	<path fill="#E65E24" d="M46.6,9.1c0,4.4,0,8.8,0,13.3c-4.1,0-8.3,0-12.5,0c0-4.4,0-8.8,0-13.3C38.2,9.1,42.3,9.1,46.6,9.1z
		 M35.8,10.8c0,3.4,0,6.7,0,9.9c3.1,0,6.1,0,9.1,0c0-3.3,0-6.6,0-9.9C41.8,10.8,38.8,10.8,35.8,10.8z"/>
	<path fill="#E65E24" d="M23.7,21.5c0-3.9,0-7.6,0-11.5c0.5,0,1,0,1.6,0c0,3.2,0,6.4,0,9.8c2.5,0,4.9,0,7.3,0c0,1.9,0,3.7,0,5.6
		c1.1,0,2.1,0,3.2,0c0,0.6,0,1.1,0,1.7c-1.6,0-3.1,0-4.8,0c0-1.9,0-3.7,0-5.6C28.5,21.5,26.2,21.5,23.7,21.5z"/>
	<path fill="#E65E24" d="M52,53c-3.9,0-7.8,0-11.7,0c0-0.5,0-1,0-1.6c3.3,0,6.6,0,10,0c0-3.2,0-6.3,0-9.5c0.6,0,1.1,0,1.7,0
		C52,45.5,52,49.2,52,53z"/>
	<path fill="#E65E24" d="M6.1,15.1c-0.7,0-1.2,0-1.7,0c0-3.7,0-7.4,0-11.1c3.9,0,7.7,0,11.7,0c0,0.5,0,1,0,1.6c-3.3,0-6.6,0-10,0
		C6.1,8.7,6.1,11.9,6.1,15.1z"/>
	<path fill="#E65E24" d="M6,51.6c3.3,0,6.4,0,9.6,0c0,0.6,0,1,0,1.6c-3.7,0-7.4,0-11.2,0c0-3.8,0-7.7,0-11.6c0.5,0,1,0,1.6,0
		C6,44.9,6,48.2,6,51.6z"/>
	<path fill="#E65E24" d="M52,15.3c-0.5,0-1,0-1.6,0c0-3.3,0-6.6,0-10c-3.2,0-6.3,0-9.5,0c0-0.6,0-1.1,0-1.6c3.7,0,7.4,0,11.2,0
		C52,7.5,52,11.4,52,15.3z"/>
	<path fill="#E65E24" d="M29.3,29.7c0,2.1,0,4.2,0,6.3c-0.5,0-1,0-1.7,0c0-1.5,0-3,0-4.6c-4.4,0-8.6,0-12.9,0c0-0.6,0-1.1,0-1.6
		C19.6,29.7,24.4,29.7,29.3,29.7z"/>
	<path fill="#E65E24" d="M31,34.2c0.5,0,1,0,1.5,0c0,4.2,0,8.4,0,12.7c-1.5,0-3,0-4.6,0c0-0.5,0-0.9,0-1.6c0.7,0,1.4,0,2.2,0
		c0.7,0,0.9-0.2,0.9-0.9c0-3.2,0-6.3,0-9.5C30.9,34.8,31,34.5,31,34.2z"/>
	<path fill="#E65E24" d="M28.7,40.8c-1.3,0-2.2,0-3.3,0c0,2.1,0,4,0,6.1c-0.6,0-1.1,0-1.7,0c0-2.5,0-5.1,0-7.8
		c1.5,0,2.9-0.1,4.3,0.1C28.3,39.2,28.5,40.1,28.7,40.8z"/>
	<path fill="#E65E24" d="M21.7,25.5c0,0.5,0,1,0,1.5c-3.6,0-7.2,0-10.8,0c0-0.5,0-1,0-1.5C14.5,25.5,18,25.5,21.7,25.5z"/>
	<path fill="#E65E24" d="M32.5,17.6c-1.6,0-3.1,0-4.6,0c0-0.5,0-1,0-1.7c1,0,2,0,3,0c0-2,0-3.9,0-5.9c0.6,0,1.1,0,1.6,0
		C32.5,12.5,32.5,15,32.5,17.6z"/>
	<path fill="#E65E24" d="M34.9,31.2c0-0.5,0-1,0-1.5c3.5,0,7,0,10.6,0c0,0.5,0,1,0,1.5C42,31.2,38.5,31.2,34.9,31.2z"/>
	<path fill="#E65E24" d="M45.8,25.5c0,0.5,0,1,0,1.6c-2.2,0-4.5,0-6.7,0c0-0.5,0-1,0-1.6C41.3,25.5,43.5,25.5,45.8,25.5z"/>
	<path fill="#E65E24" d="M28.4,27.1c-1.6,0-3.1,0-4.6,0c-0.3-1.6-0.3-1.7,1.2-1.7c0.7,0,1.4,0,2.1,0C28.6,25.4,28.6,25.4,28.4,27.1z
		"/>
	<path fill="#E65E24" d="M12.4,29.8c0,0.5,0,1,0,1.5c-0.5,0-1,0-1.5,0C10.4,29.7,10.6,29.5,12.4,29.8z"/>
	<path fill="#E65E24" d="M31,31.2c0-0.5,0-1,0-1.5c0.5,0,1,0,1.5,0c0,0.5,0,1,0,1.5C32,31.2,31.6,31.2,31,31.2z"/>
	<path fill="#E65E24" d="M13,37.9c2.2,0,4.4,0,6.6,0c0,2.2,0,4.4,0,6.6c-2.2,0-4.4,0-6.6,0C13,42.3,13,40.2,13,37.9z"/>
	<path fill="#E65E24" d="M19.6,19.1c-2.2,0-4.4,0-6.6,0c0-2.2,0-4.4,0-6.6c2.2,0,4.4,0,6.6,0C19.6,14.7,19.6,16.8,19.6,19.1z"/>
	<path fill="#E65E24" d="M37,44.5c0-2.3,0-4.4,0-6.6c2.2,0,4.4,0,6.6,0c0,2.2,0,4.4,0,6.6C41.4,44.5,39.2,44.5,37,44.5z"/>
	<path fill="#E65E24" d="M43.6,12.5c0,2.2,0,4.3,0,6.6c-2.2,0-4.4,0-6.6,0c0-2.2,0-4.3,0-6.6C39.2,12.5,41.4,12.5,43.6,12.5z"/>
</g>
</svg>
