<?xml version="1.0" encoding="utf-8"?>
<!-- Generator: Adobe Illustrator 28.0.0, SVG Export Plug-In . SVG Version: 6.00 Build 0)  -->
<svg version="1.1" id="Layer_1" xmlns="http://www.w3.org/2000/svg" xmlns:xlink="http://www.w3.org/1999/xlink" x="0px" y="0px"
	 viewBox="0 0 55 55" enable-background="new 0 0 55 55" xml:space="preserve">
<path fill="#AFAFAF" d="M31.6,26.6c4.5,0.8,8.4,2.5,11.9,5.3c6.2,5,9.4,11.6,9.8,19.5c0.1,1.6-0.1,1.8-1.7,1.8c-11,0-22.1,0-33.1,0
	c-5.2,0-10.4,0-15.7,0c-1.3,0-1.6-0.2-1.5-1.6c0.3-12,8.9-22.4,20.8-24.8c0.3,0,0.5-0.1,1-0.2c-3.4-1.4-5.8-3.5-7.2-6.7
	c-1.4-3.2-1.6-6.5-0.3-9.8c2.1-5.4,7.3-8.5,13.1-8.1c5.2,0.4,9.9,4.7,11.1,9.9C40.8,17.4,38.2,23.9,31.6,26.6z M51.3,51.2
	c-0.3-12.5-11.3-24.1-25.9-23c-13.6,1-22.1,12.7-22.1,23C19.3,51.2,35.2,51.2,51.3,51.2z M27.2,25.3c5.9,0,10.7-4.8,10.7-10.7
	c0-5.8-4.8-10.7-10.7-10.7c-6,0-10.8,4.8-10.8,10.7C16.5,20.5,21.3,25.3,27.2,25.3z"/>
</svg>
